<mxfile host="app.diagrams.net" modified="2023-10-15T22:29:44.156Z" agent="Mozilla/5.0 (Macintosh; Intel Mac OS X 10_15_7) AppleWebKit/537.36 (KHTML, like Gecko) Chrome/117.0.0.0 Safari/537.36" etag="ZUoYNGPhTuQSQ73dWNVu" version="21.6.8" type="device">
  <diagram name="Page-1" id="zfZL6-J0XkMWE4snJr3I">
    <mxGraphModel dx="1060" dy="678" grid="1" gridSize="10" guides="1" tooltips="1" connect="1" arrows="1" fold="1" page="1" pageScale="1" pageWidth="827" pageHeight="1169" math="0" shadow="0">
      <root>
        <mxCell id="0" />
        <mxCell id="1" parent="0" />
        <mxCell id="nokvyFdKvQ4ps4WL3iHy-1" style="edgeStyle=orthogonalEdgeStyle;rounded=0;orthogonalLoop=1;jettySize=auto;html=1;exitX=0.5;exitY=1;exitDx=0;exitDy=0;entryX=0.5;entryY=0;entryDx=0;entryDy=0;" edge="1" parent="1" source="nokvyFdKvQ4ps4WL3iHy-2" target="nokvyFdKvQ4ps4WL3iHy-17">
          <mxGeometry relative="1" as="geometry" />
        </mxCell>
        <mxCell id="nokvyFdKvQ4ps4WL3iHy-2" value="User clicks on Signup Button" style="rounded=0;whiteSpace=wrap;html=1;" vertex="1" parent="1">
          <mxGeometry x="360" y="40" width="106" height="40" as="geometry" />
        </mxCell>
        <mxCell id="nokvyFdKvQ4ps4WL3iHy-3" style="edgeStyle=orthogonalEdgeStyle;rounded=0;orthogonalLoop=1;jettySize=auto;html=1;exitX=0.5;exitY=1;exitDx=0;exitDy=0;" edge="1" parent="1" source="nokvyFdKvQ4ps4WL3iHy-4" target="nokvyFdKvQ4ps4WL3iHy-9">
          <mxGeometry relative="1" as="geometry" />
        </mxCell>
        <mxCell id="nokvyFdKvQ4ps4WL3iHy-4" value="Enter the username, phone number, email address, country, city, state, and postal code.&lt;br&gt;Create a password." style="shape=parallelogram;perimeter=parallelogramPerimeter;whiteSpace=wrap;html=1;fixedSize=1;" vertex="1" parent="1">
          <mxGeometry x="178.75" y="390" width="184.5" height="90" as="geometry" />
        </mxCell>
        <mxCell id="nokvyFdKvQ4ps4WL3iHy-5" style="edgeStyle=orthogonalEdgeStyle;rounded=0;orthogonalLoop=1;jettySize=auto;html=1;exitX=0.5;exitY=1;exitDx=0;exitDy=0;entryX=0.5;entryY=0;entryDx=0;entryDy=0;" edge="1" parent="1" source="nokvyFdKvQ4ps4WL3iHy-6" target="nokvyFdKvQ4ps4WL3iHy-4">
          <mxGeometry relative="1" as="geometry" />
        </mxCell>
        <mxCell id="nokvyFdKvQ4ps4WL3iHy-6" value="This is the signup page" style="rounded=0;whiteSpace=wrap;html=1;" vertex="1" parent="1">
          <mxGeometry x="211" y="290" width="120" height="60" as="geometry" />
        </mxCell>
        <mxCell id="nokvyFdKvQ4ps4WL3iHy-7" style="edgeStyle=orthogonalEdgeStyle;rounded=0;orthogonalLoop=1;jettySize=auto;html=1;exitX=0;exitY=0.5;exitDx=0;exitDy=0;entryX=1;entryY=0.5;entryDx=0;entryDy=0;" edge="1" parent="1" source="nokvyFdKvQ4ps4WL3iHy-9" target="nokvyFdKvQ4ps4WL3iHy-10">
          <mxGeometry relative="1" as="geometry" />
        </mxCell>
        <mxCell id="nokvyFdKvQ4ps4WL3iHy-8" style="edgeStyle=orthogonalEdgeStyle;rounded=0;orthogonalLoop=1;jettySize=auto;html=1;exitX=0.5;exitY=1;exitDx=0;exitDy=0;entryX=0.5;entryY=0;entryDx=0;entryDy=0;" edge="1" parent="1" source="nokvyFdKvQ4ps4WL3iHy-9" target="nokvyFdKvQ4ps4WL3iHy-12">
          <mxGeometry relative="1" as="geometry" />
        </mxCell>
        <mxCell id="nokvyFdKvQ4ps4WL3iHy-9" value="Check if the information is valid?" style="rhombus;whiteSpace=wrap;html=1;" vertex="1" parent="1">
          <mxGeometry x="207.5" y="520" width="127" height="110" as="geometry" />
        </mxCell>
        <mxCell id="nokvyFdKvQ4ps4WL3iHy-10" value="Create new account.&lt;br&gt;Redirect to login page" style="rounded=0;whiteSpace=wrap;html=1;" vertex="1" parent="1">
          <mxGeometry x="8" y="545" width="120" height="60" as="geometry" />
        </mxCell>
        <mxCell id="nokvyFdKvQ4ps4WL3iHy-27" style="edgeStyle=orthogonalEdgeStyle;rounded=0;orthogonalLoop=1;jettySize=auto;html=1;exitX=1;exitY=0.5;exitDx=0;exitDy=0;entryX=1;entryY=0.5;entryDx=0;entryDy=0;" edge="1" parent="1" source="nokvyFdKvQ4ps4WL3iHy-12" target="nokvyFdKvQ4ps4WL3iHy-4">
          <mxGeometry relative="1" as="geometry">
            <Array as="points">
              <mxPoint x="400" y="710" />
              <mxPoint x="400" y="430" />
            </Array>
          </mxGeometry>
        </mxCell>
        <mxCell id="nokvyFdKvQ4ps4WL3iHy-12" value="Display error message. Prompt user to re-enter the credentials" style="rounded=0;whiteSpace=wrap;html=1;" vertex="1" parent="1">
          <mxGeometry x="211" y="680" width="120" height="60" as="geometry" />
        </mxCell>
        <mxCell id="nokvyFdKvQ4ps4WL3iHy-13" value="YES" style="text;html=1;align=center;verticalAlign=middle;resizable=0;points=[];autosize=1;strokeColor=none;fillColor=none;" vertex="1" parent="1">
          <mxGeometry x="148" y="545" width="50" height="30" as="geometry" />
        </mxCell>
        <mxCell id="nokvyFdKvQ4ps4WL3iHy-14" value="NO" style="text;html=1;align=center;verticalAlign=middle;resizable=0;points=[];autosize=1;strokeColor=none;fillColor=none;" vertex="1" parent="1">
          <mxGeometry x="272" y="640" width="40" height="30" as="geometry" />
        </mxCell>
        <mxCell id="nokvyFdKvQ4ps4WL3iHy-15" style="edgeStyle=orthogonalEdgeStyle;rounded=0;orthogonalLoop=1;jettySize=auto;html=1;exitX=0.5;exitY=1;exitDx=0;exitDy=0;entryX=0.5;entryY=0;entryDx=0;entryDy=0;" edge="1" parent="1" source="nokvyFdKvQ4ps4WL3iHy-17" target="nokvyFdKvQ4ps4WL3iHy-21">
          <mxGeometry relative="1" as="geometry" />
        </mxCell>
        <mxCell id="nokvyFdKvQ4ps4WL3iHy-16" style="edgeStyle=orthogonalEdgeStyle;rounded=0;orthogonalLoop=1;jettySize=auto;html=1;exitX=0.5;exitY=1;exitDx=0;exitDy=0;entryX=0.5;entryY=0;entryDx=0;entryDy=0;" edge="1" parent="1" source="nokvyFdKvQ4ps4WL3iHy-17" target="nokvyFdKvQ4ps4WL3iHy-6">
          <mxGeometry relative="1" as="geometry" />
        </mxCell>
        <mxCell id="nokvyFdKvQ4ps4WL3iHy-17" value="Do you wanna signup?" style="rhombus;whiteSpace=wrap;html=1;" vertex="1" parent="1">
          <mxGeometry x="350" y="140" width="126" height="100" as="geometry" />
        </mxCell>
        <mxCell id="nokvyFdKvQ4ps4WL3iHy-18" value="Redirect to login page" style="rounded=0;whiteSpace=wrap;html=1;" vertex="1" parent="1">
          <mxGeometry x="690" y="480" width="120" height="60" as="geometry" />
        </mxCell>
        <mxCell id="nokvyFdKvQ4ps4WL3iHy-19" style="edgeStyle=orthogonalEdgeStyle;rounded=0;orthogonalLoop=1;jettySize=auto;html=1;exitX=0.5;exitY=1;exitDx=0;exitDy=0;entryX=0.5;entryY=0;entryDx=0;entryDy=0;" edge="1" parent="1" source="nokvyFdKvQ4ps4WL3iHy-21" target="nokvyFdKvQ4ps4WL3iHy-18">
          <mxGeometry relative="1" as="geometry" />
        </mxCell>
        <mxCell id="nokvyFdKvQ4ps4WL3iHy-20" style="edgeStyle=orthogonalEdgeStyle;rounded=0;orthogonalLoop=1;jettySize=auto;html=1;exitX=0.5;exitY=1;exitDx=0;exitDy=0;" edge="1" parent="1" source="nokvyFdKvQ4ps4WL3iHy-21" target="nokvyFdKvQ4ps4WL3iHy-23">
          <mxGeometry relative="1" as="geometry" />
        </mxCell>
        <mxCell id="nokvyFdKvQ4ps4WL3iHy-21" value="Do you wanna go back to login page?" style="rhombus;whiteSpace=wrap;html=1;" vertex="1" parent="1">
          <mxGeometry x="590" y="290" width="110" height="100" as="geometry" />
        </mxCell>
        <mxCell id="nokvyFdKvQ4ps4WL3iHy-22" value="YES" style="text;html=1;align=center;verticalAlign=middle;resizable=0;points=[];autosize=1;strokeColor=none;fillColor=none;" vertex="1" parent="1">
          <mxGeometry x="690" y="410" width="50" height="30" as="geometry" />
        </mxCell>
        <mxCell id="nokvyFdKvQ4ps4WL3iHy-23" value="Forgot Password.&lt;br&gt;Redirect to Reset Password Page." style="rounded=0;whiteSpace=wrap;html=1;" vertex="1" parent="1">
          <mxGeometry x="470" y="480" width="120" height="60" as="geometry" />
        </mxCell>
        <mxCell id="nokvyFdKvQ4ps4WL3iHy-24" value="NO" style="text;html=1;align=center;verticalAlign=middle;resizable=0;points=[];autosize=1;strokeColor=none;fillColor=none;" vertex="1" parent="1">
          <mxGeometry x="550" y="408" width="40" height="30" as="geometry" />
        </mxCell>
        <mxCell id="nokvyFdKvQ4ps4WL3iHy-25" value="NO" style="text;html=1;align=center;verticalAlign=middle;resizable=0;points=[];autosize=1;strokeColor=none;fillColor=none;" vertex="1" parent="1">
          <mxGeometry x="500" y="238" width="40" height="30" as="geometry" />
        </mxCell>
        <mxCell id="nokvyFdKvQ4ps4WL3iHy-26" value="YES" style="text;html=1;align=center;verticalAlign=middle;resizable=0;points=[];autosize=1;strokeColor=none;fillColor=none;" vertex="1" parent="1">
          <mxGeometry x="284.5" y="238" width="50" height="30" as="geometry" />
        </mxCell>
      </root>
    </mxGraphModel>
  </diagram>
</mxfile>
